<?xml version="1.0" encoding="UTF-8"?><svg xmlns="http://www.w3.org/2000/svg" viewBox="0 0 381.95 410.81"><defs><style>.h{fill:green;}.i{fill:#520;}.j{fill:red;}</style></defs><g id="a"/><g id="b"><g id="c"><g id="d"><path id="e" class="h" d="M74.14,20.55c-.17,0-.35,0-.53,0-7.48,.49-9.05,9.16-8.74,15.21-.16,14.58-2.06,29.72,2.4,43.85,6.89,17.69,17.93,33.5,30.88,47.29,109.69,5.98,96.6,36.76,110.29-55,.29-9.53-7.9-15.95-15.27-20.39-14.23-10.13-30.46-18.31-48.16-19.49-22.54-2.61-46.05-1.56-67.3-10.68-1.16-.36-2.34-.75-3.56-.79h0Z"/><path id="f" class="i" d="M207.58,4.58c-12.38,17.97-19.2,39.15-22.06,60.66-2.9,22.04-4.29,44.49-2.02,66.65,1.68,10.4,16.2,17.1,24.11,8.94,8.26-7.47,5.88-19.55,7.49-29.42,2.08-24.21,10.49-48.05,24.32-67.89,4.02-4.8,4.47-12.57-.88-16.58-6.21-4.52-13.38-7.96-17.92-14.45-3.44-4.14-6.83-8.32-10.26-12.48-.93,1.53-1.85,3.05-2.78,4.58h0Z"/><path id="g" class="j" d="M171.98,404.78c16.89-6.5,27.37-6.49,42.81,.06,27.4,11.61,68.24,4.27,100.88-18.14,29.97-20.58,52.33-57.37,62.02-102.07,5.32-24.52,5.75-81.35,.78-100.96-5.42-21.36-13.77-36.59-27.65-50.43-22.01-21.96-48.89-31.05-87.83-29.69-26.85,.93-38.47,4.58-55.46,17.43l-10.71,8.1-19.2-9.84c-33.04-16.94-66.1-23.04-93.56-17.25C44.71,110.26,15.69,137.55,3.42,177.8c-4.51,14.8-4.57,58.26-.11,84.16,6.54,37.99,20.51,74.67,36.86,96.79,18.56,25.11,45.62,43.72,72.25,49.72,18.49,4.16,43.1,2.64,59.56-3.7h0Z"/></g></g></g></svg>